<svg width="55" height="55" viewBox="0 0 55 55" fill="none" xmlns="http://www.w3.org/2000/svg">
<g clip-path="url(#clip0_1292_3302)">
<path d="M38.1251 22.7004L36.1134 22.499L35.9112 22.0106L37.1911 20.4465C37.4374 20.1473 37.5633 19.7669 37.5441 19.3798C37.5248 18.9927 37.3618 18.6267 37.087 18.3534L34.9277 16.1942C34.6543 15.9195 34.2883 15.7567 33.9012 15.7374C33.5142 15.7182 33.1339 15.8439 32.8346 16.0901L31.2705 17.3699L30.782 17.1677L30.5811 15.1567C30.5437 14.7708 30.3636 14.4127 30.0761 14.1526C29.7886 13.8924 29.4143 13.7489 29.0266 13.75H25.9734C25.5857 13.7489 25.2116 13.8925 24.9242 14.1526C24.6367 14.4127 24.4567 14.7707 24.4191 15.1565L24.2186 17.1648L23.7274 17.368L22.1667 16.0915C21.8674 15.8448 21.4868 15.7186 21.0994 15.7377C20.712 15.7568 20.3456 15.9197 20.072 16.1946L17.9131 18.3531C17.6383 18.6264 17.4753 18.9924 17.456 19.3795C17.4368 19.7666 17.5627 20.147 17.809 20.4462L19.0889 22.0102L18.8867 22.4987L16.8745 22.7001C16.4888 22.7377 16.1309 22.9179 15.8709 23.2054C15.611 23.4929 15.4676 23.8671 15.4688 24.2547V27.3079C15.4677 27.6954 15.6111 28.0695 15.8712 28.357C16.1312 28.6444 16.4891 28.8245 16.8749 28.8621L18.8866 29.0635L19.0888 29.5519L17.8089 31.116C17.5626 31.4152 17.4367 31.7956 17.456 32.1827C17.4752 32.5698 17.6382 32.9358 17.913 33.2091L20.0723 35.3684C20.3458 35.643 20.7117 35.8058 21.0988 35.8251C21.4858 35.8443 21.8661 35.7186 22.1654 35.4724L23.7274 34.1945L24.2187 34.3977L24.4192 36.406C24.4567 36.7918 24.6368 37.1498 24.9242 37.4099C25.2117 37.67 25.5858 37.8136 25.9734 37.8125H29.0266C29.4143 37.8136 29.7884 37.67 30.0758 37.4099C30.3633 37.1498 30.5434 36.7918 30.5809 36.406L30.7814 34.3977L31.2727 34.1945L32.8333 35.4711C33.1325 35.718 33.5132 35.8442 33.9006 35.8252C34.2881 35.8061 34.6545 35.643 34.928 35.3679L37.0869 33.2094C37.3618 32.9361 37.5247 32.5701 37.544 32.183C37.5632 31.7959 37.4374 31.4156 37.191 31.1163L35.9111 29.5523L36.1134 29.0638L38.1255 28.8625C38.5113 28.8248 38.8691 28.6446 39.1291 28.3571C39.389 28.0696 39.5325 27.6955 39.5313 27.3079V24.2547C39.5324 23.8671 39.3889 23.493 39.1288 23.2056C38.8688 22.9181 38.5109 22.738 38.1251 22.7004ZM37.8125 27.166L35.4308 27.4044C35.2761 27.4198 35.1286 27.477 35.0039 27.5696C34.8792 27.6623 34.7819 27.787 34.7225 27.9306L34.1266 29.369C34.067 29.5125 34.0476 29.6695 34.0703 29.8232C34.093 29.9769 34.157 30.1216 34.2555 30.2418L35.7711 32.0948L33.8131 34.0519L31.9631 32.5379C31.8426 32.4398 31.6978 32.3761 31.5441 32.3535C31.3904 32.3309 31.2334 32.3503 31.0898 32.4095L29.6484 33.0071C29.5049 33.0665 29.3802 33.1638 29.2875 33.2885C29.1948 33.4132 29.1377 33.5607 29.1222 33.7154L28.8847 36.0938H26.1153L25.8778 33.7154C25.8623 33.5607 25.8052 33.4132 25.7125 33.2885C25.6199 33.1638 25.4951 33.0665 25.3516 33.0071L23.9102 32.4095C23.7666 32.3502 23.6096 32.3308 23.4559 32.3534C23.3022 32.376 23.1574 32.4398 23.0369 32.5379L21.1869 34.0519L19.229 32.0948L20.7446 30.2414C20.8431 30.1212 20.9071 29.9766 20.9298 29.8229C20.9525 29.6691 20.9331 29.5122 20.8735 29.3686L20.2776 27.9302C20.2182 27.7867 20.1209 27.6619 19.9962 27.5693C19.8715 27.4766 19.724 27.4195 19.5694 27.404L17.1875 27.166V24.3965L19.5693 24.1582C19.7239 24.1427 19.8714 24.0856 19.9961 23.9929C20.1208 23.9002 20.2181 23.7755 20.2776 23.632L20.8735 22.1935C20.933 22.05 20.9524 21.893 20.9297 21.7393C20.907 21.5856 20.843 21.4409 20.7445 21.3208L19.2289 19.4677L21.1868 17.5106L23.0368 19.0246C23.1572 19.1229 23.302 19.1867 23.4558 19.2094C23.6095 19.232 23.7666 19.2125 23.9101 19.153L25.3516 18.5555C25.4951 18.496 25.6199 18.3987 25.7125 18.274C25.8052 18.1493 25.8623 18.0018 25.8778 17.8472L26.1153 15.4688H28.8847L29.1227 17.8505C29.143 18.0083 29.2047 18.1578 29.3016 18.284C29.3984 18.4102 29.5269 18.5085 29.6741 18.5689L31.0869 19.1547C31.2305 19.2139 31.3874 19.2333 31.5411 19.2107C31.6948 19.1882 31.8396 19.1246 31.9602 19.0266L33.8128 17.511L35.7707 19.468L34.2554 21.3211C34.1569 21.4413 34.0929 21.586 34.0702 21.7397C34.0475 21.8934 34.067 22.0504 34.1265 22.1939L34.7224 23.6323C34.7818 23.7758 34.8791 23.9006 35.0038 23.9932C35.1286 24.0859 35.2761 24.143 35.4307 24.1585L37.8125 24.3965V27.166Z" fill="#0E59F2"/>
<path d="M27.5 20.625C26.4802 20.625 25.4833 20.9274 24.6353 21.494C23.7874 22.0606 23.1265 22.8659 22.7362 23.808C22.346 24.7502 22.2439 25.787 22.4428 26.7872C22.6418 27.7874 23.1329 28.7062 23.854 29.4273C24.5751 30.1484 25.4939 30.6395 26.4941 30.8384C27.4943 31.0374 28.531 30.9353 29.4732 30.545C30.4154 30.1547 31.2207 29.4938 31.7873 28.6459C32.3538 27.798 32.6562 26.8011 32.6562 25.7812C32.6547 24.4142 32.111 23.1035 31.1444 22.1369C30.1777 21.1702 28.8671 20.6265 27.5 20.625V20.625ZM27.5 29.2187C26.8201 29.2187 26.1555 29.0171 25.5902 28.6394C25.0249 28.2617 24.5843 27.7248 24.3242 27.0967C24.064 26.4686 23.9959 25.7774 24.1286 25.1106C24.2612 24.4438 24.5886 23.8313 25.0693 23.3506C25.5501 22.8698 26.1626 22.5424 26.8294 22.4098C27.4962 22.2772 28.1874 22.3452 28.8155 22.6054C29.4436 22.8656 29.9805 23.3062 30.3582 23.8715C30.7359 24.4368 30.9375 25.1014 30.9375 25.7812C30.9365 26.6926 30.5741 27.5664 29.9296 28.2109C29.2852 28.8553 28.4114 29.2178 27.5 29.2187V29.2187Z" fill="#0E59F2"/>
<path d="M27.5 6.875C27.7279 6.875 27.9465 6.78446 28.1077 6.62329C28.2688 6.46213 28.3594 6.24355 28.3594 6.01562V0.859375C28.3594 0.631455 28.2688 0.412869 28.1077 0.251705C27.9465 0.090541 27.7279 0 27.5 0C27.2721 0 27.0535 0.090541 26.8923 0.251705C26.7312 0.412869 26.6406 0.631455 26.6406 0.859375V6.01562C26.6406 6.24355 26.7312 6.46213 26.8923 6.62329C27.0535 6.78446 27.2721 6.875 27.5 6.875Z" fill="#0E59F2"/>
<path d="M12.9151 12.4116C13.0769 12.5694 13.2944 12.657 13.5204 12.6556C13.7465 12.6542 13.9628 12.5638 14.1227 12.4039C14.2825 12.2441 14.3729 12.0277 14.3744 11.8017C14.3758 11.5757 14.2881 11.3582 14.1303 11.1963L10.4847 7.55069C10.3228 7.3929 10.1053 7.30523 9.87932 7.30666C9.65329 7.30809 9.43693 7.39852 9.2771 7.55835C9.11727 7.71818 9.02684 7.93454 9.02541 8.16057C9.02398 8.3866 9.11165 8.60409 9.26944 8.76594L12.9151 12.4116Z" fill="#0E59F2"/>
<path d="M7.73438 24.9219H2.57812C2.3502 24.9219 2.13162 25.0124 1.97046 25.1736C1.80929 25.3347 1.71875 25.5533 1.71875 25.7812C1.71875 26.0092 1.80929 26.2278 1.97046 26.3889C2.13162 26.5501 2.3502 26.6406 2.57812 26.6406H7.73438C7.9623 26.6406 8.18088 26.5501 8.34204 26.3889C8.50321 26.2278 8.59375 26.0092 8.59375 25.7812C8.59375 25.5533 8.50321 25.3347 8.34204 25.1736C8.18088 25.0124 7.9623 24.9219 7.73438 24.9219Z" fill="#0E59F2"/>
<path d="M12.9151 39.1501L9.26944 42.7957C9.11165 42.9576 9.02398 43.1751 9.02541 43.4011C9.02684 43.6271 9.11727 43.8435 9.2771 44.0033C9.43693 44.1632 9.65329 44.2536 9.87932 44.255C10.1053 44.2564 10.3228 44.1688 10.4847 44.011L14.1303 40.3653C14.2118 40.2859 14.2767 40.1911 14.3212 40.0864C14.3657 39.9817 14.389 39.8692 14.3898 39.7554C14.3905 39.6417 14.3686 39.5289 14.3254 39.4237C14.2822 39.3184 14.2185 39.2228 14.1381 39.1423C14.0576 39.0619 13.962 38.9982 13.8568 38.955C13.7515 38.9118 13.6387 38.8899 13.525 38.8906C13.4112 38.8914 13.2987 38.9147 13.194 38.9592C13.0893 39.0037 12.9945 39.0686 12.9151 39.1501V39.1501Z" fill="#0E59F2"/>
<path d="M44.5145 7.55069L40.8688 11.1963C40.7874 11.2758 40.7225 11.3706 40.678 11.4753C40.6334 11.5799 40.6101 11.6924 40.6094 11.8062C40.6087 11.92 40.6305 12.0328 40.6738 12.138C40.717 12.2433 40.7806 12.3389 40.8611 12.4193C40.9415 12.4998 41.0372 12.5634 41.1424 12.6067C41.2477 12.6499 41.3604 12.6717 41.4742 12.671C41.588 12.6703 41.7005 12.647 41.8052 12.6025C41.9098 12.5579 42.0047 12.493 42.0841 12.4116L45.7297 8.76594C45.8875 8.60409 45.9752 8.3866 45.9738 8.16057C45.9723 7.93454 45.8819 7.71818 45.7221 7.55835C45.5622 7.39852 45.3459 7.30809 45.1199 7.30666C44.8938 7.30523 44.6763 7.3929 44.5145 7.55069V7.55069Z" fill="#0E59F2"/>
<path d="M52.4219 24.9219H47.2656C47.0377 24.9219 46.8191 25.0124 46.658 25.1736C46.4968 25.3347 46.4062 25.5533 46.4062 25.7812C46.4062 26.0092 46.4968 26.2278 46.658 26.3889C46.8191 26.5501 47.0377 26.6406 47.2656 26.6406H52.4219C52.6498 26.6406 52.8684 26.5501 53.0295 26.3889C53.1907 26.2278 53.2812 26.0092 53.2812 25.7812C53.2812 25.5533 53.1907 25.3347 53.0295 25.1736C52.8684 25.0124 52.6498 24.9219 52.4219 24.9219Z" fill="#0E59F2"/>
<path d="M42.0841 39.1501C42.0047 39.0686 41.9098 39.0037 41.8052 38.9592C41.7005 38.9147 41.588 38.8914 41.4742 38.8906C41.3604 38.8899 41.2477 38.9118 41.1424 38.955C41.0372 38.9982 40.9415 39.0619 40.8611 39.1423C40.7806 39.2228 40.717 39.3184 40.6738 39.4237C40.6305 39.5289 40.6087 39.6417 40.6094 39.7554C40.6101 39.8692 40.6334 39.9817 40.678 40.0864C40.7225 40.1911 40.7874 40.2859 40.8688 40.3653L44.5145 44.011C44.6763 44.1688 44.8938 44.2564 45.1199 44.255C45.3459 44.2536 45.5622 44.1632 45.7221 44.0033C45.8819 43.8435 45.9723 43.6271 45.9738 43.4011C45.9752 43.1751 45.8875 42.9576 45.7297 42.7957L42.0841 39.1501Z" fill="#0E59F2"/>
<path d="M27.5001 8.59375C22.9432 8.59889 18.5745 10.4114 15.3524 13.6335C12.1302 16.8557 10.3177 21.2244 10.3126 25.7812C10.3057 28.087 10.7675 30.3701 11.6698 32.492C12.5722 34.6139 13.8964 36.5302 15.562 38.1247C16.3389 38.8532 16.9598 39.7319 17.3869 40.7076C17.8141 41.6832 18.0386 42.7354 18.047 43.8005V48.9844C18.047 49.2123 18.1375 49.4309 18.2987 49.592C18.4598 49.7532 18.6784 49.8438 18.9063 49.8438H21.5532C21.7582 51.2749 22.4723 52.5841 23.5647 53.5312C24.6571 54.4783 26.0543 54.9997 27.5001 54.9997C28.9458 54.9997 30.3431 54.4783 31.4354 53.5312C32.5278 52.5841 33.242 51.2749 33.447 49.8438H36.0938C36.3217 49.8438 36.5403 49.7532 36.7015 49.592C36.8627 49.4309 36.9532 49.2123 36.9532 48.9844V43.8005C36.9615 42.7354 37.1861 41.6832 37.6132 40.7076C38.0404 39.7319 38.6613 38.8532 39.4382 38.1247C41.1038 36.5302 42.4279 34.6139 43.3303 32.492C44.2327 30.3701 44.6945 28.087 44.6876 25.7812C44.6824 21.2244 42.87 16.8557 39.6478 13.6335C36.4256 10.4114 32.0569 8.59889 27.5001 8.59375V8.59375ZM27.5001 53.2812C26.51 53.28 25.5506 52.9374 24.7836 52.3112C24.0166 51.685 23.489 50.8136 23.2897 49.8438H31.7105C31.5111 50.8136 30.9835 51.685 30.2166 52.3112C29.4496 52.9374 28.4902 53.28 27.5001 53.2812V53.2812ZM19.7657 48.125V45.5469H35.2345V48.125H19.7657ZM38.2448 36.8876C37.301 37.776 36.5475 38.8467 36.03 40.035C35.5126 41.2234 35.2419 42.5044 35.2345 43.8005V43.8281H19.7657V43.8005C19.7583 42.5044 19.4876 41.2234 18.9701 40.035C18.4527 38.8467 17.6992 37.776 16.7554 36.8876C15.2565 35.4531 14.0648 33.7288 13.2527 31.8196C12.4407 29.9104 12.0251 27.856 12.0313 25.7812C12.0313 21.6787 13.6611 17.7441 16.562 14.8432C19.463 11.9422 23.3975 10.3125 27.5001 10.3125C31.6026 10.3125 35.5372 11.9422 38.4381 14.8432C41.3391 17.7441 42.9688 21.6787 42.9688 25.7812C42.975 27.856 42.5595 29.9104 41.7474 31.8196C40.9353 33.7288 39.7436 35.4531 38.2448 36.8876V36.8876Z" fill="#0E59F2"/>
</g>
<defs>
<clipPath id="clip0_1292_3302">
<rect width="55" height="55" fill="white"/>
</clipPath>
</defs>
</svg>
