<svg width="54" height="45" viewBox="0 0 54 45" fill="none" xmlns="http://www.w3.org/2000/svg">
<path d="M50.8474 32.0731V27.0704C50.8474 25.4986 49.9741 24.0856 48.5683 23.3827L44.6574 21.4272C44.3543 21.2757 44.166 20.9711 44.1659 20.6322L44.1649 17.1035C45.6368 16.4735 46.6707 15.011 46.6707 13.3113V7.46405C46.6707 3.80893 43.697 0.835209 40.0419 0.835209H33.3593C30.6253 0.835209 28.4011 3.05948 28.4011 5.79342C28.4011 6.87226 29.1017 7.79 30.0717 8.11721V13.3115C30.0717 16.5071 32.1039 19.3213 35.0837 20.3548V21.5992L29.8448 24.2187C28.4391 24.9215 27.5658 26.3346 27.5658 27.9063V40.0957H25.5939C25.7184 39.7965 25.7875 39.4688 25.7875 39.125V30.9348C25.7875 29.5377 24.6508 28.4011 23.2537 28.4011H20.7755V28.3473C20.7755 25.8793 18.9627 23.8272 16.5987 23.4513V22.5022C18.7358 21.4379 20.2944 19.3801 20.6634 16.9363C21.7953 15.7397 22.4181 14.1634 22.4181 12.4761C22.4181 9.77377 21.542 7.28356 19.9513 5.46434C18.2832 3.55665 15.9151 2.50594 13.2833 2.50594C12.932 2.50594 12.5851 2.52449 12.2432 2.56002C11.1721 0.971093 9.36768 0 7.43612 0C4.24159 0 1.64259 2.59889 1.64259 5.79353C1.64259 7.46665 2.34932 9.02849 3.59301 10.1291C3.41065 10.8821 3.31322 11.6679 3.31322 12.4761C3.31322 14.6318 4.32662 16.5765 6.09551 17.8243C6.4892 19.2323 7.28554 20.4731 8.35313 21.4146V23.4302C4.6035 23.8223 1.67063 27.0016 1.67063 30.8532V40.0957H0.781543C0.349923 40.0957 0 40.4456 0 40.8772C0 41.3088 0.349923 41.6587 0.781543 41.6587H27.5658V44.2185C27.5658 44.6501 27.9157 45 28.3473 45C28.7789 45 29.1288 44.6501 29.1288 44.2185V27.9063C29.1288 27.5761 29.1923 27.2577 29.3083 26.9633L32.1914 29.366C32.9678 30.0129 33.413 30.9636 33.413 31.9742V44.2185C33.413 44.6501 33.763 45 34.1946 45C34.6262 45 34.9761 44.6501 34.9761 44.2185V35.8652C34.9761 34.4538 36.1245 33.3054 37.5358 33.3054H49.2304C50.6419 33.3054 51.7901 34.4538 51.7901 35.8652V44.2185C51.7901 44.6501 52.1401 45 52.5717 45C53.0033 45 53.3532 44.6501 53.3532 44.2185V35.8652C53.3533 34.1655 52.3193 32.703 50.8474 32.0731ZM3.20579 5.79342C3.20579 3.46078 5.10348 1.56298 7.43622 1.56298C8.61354 1.56298 9.7251 2.05869 10.5159 2.89702C7.66621 3.72171 5.33825 5.78634 4.15635 8.46599C3.54497 7.71873 3.20579 6.78296 3.20579 5.79342ZM5.82875 15.4162C5.20852 14.5828 4.87641 13.5784 4.87641 12.4761C4.87641 7.84044 8.64783 4.06903 13.2834 4.06903C15.4891 4.06903 17.388 4.90726 18.7747 6.49327C20.1163 8.02749 20.8551 10.1522 20.8551 12.4761C20.8551 12.8406 20.8181 13.1941 20.7476 13.5349V13.4868C20.7476 12.2157 19.7992 11.167 18.5415 11.0475C16.5788 10.8608 12.9105 10.2815 10.3942 8.49714C10.0713 8.26831 9.6284 8.31676 9.36288 8.61L8.02989 10.0819C6.69428 11.5566 5.92107 13.4371 5.82875 15.4162ZM7.38235 15.8158C7.38235 14.0809 8.02374 12.4172 9.18844 11.1313L10.0717 10.156C12.828 11.8499 16.418 12.4157 18.3937 12.6035C18.8446 12.6463 19.1845 13.026 19.1845 13.4867V15.8173C19.1845 19.0711 16.5372 21.7184 13.2834 21.7184C10.0296 21.7184 7.38235 19.0712 7.38235 15.8158ZM15.0358 23.0718V23.3353C15.0358 24.7468 13.8875 25.895 12.476 25.895C11.0646 25.895 9.91632 24.7467 9.91632 23.3353V22.4756C10.9288 22.9898 12.0723 23.2815 13.2835 23.2815C13.887 23.2815 14.4733 23.2077 15.0358 23.0718ZM24.2245 39.125C24.2245 39.6602 23.789 40.0957 23.2538 40.0957H8.38106C7.84586 40.0957 7.41038 39.6602 7.41038 39.125V35.0299C7.41038 34.5983 7.06046 34.2484 6.62884 34.2484C6.19722 34.2484 5.8473 34.5983 5.8473 35.0299V39.125C5.8473 39.4688 5.91638 39.7965 6.04091 40.0957H3.23371V30.8532C3.23371 27.7484 5.64441 25.1979 8.69211 24.9705C9.32641 26.4326 10.7834 27.4581 12.476 27.4581C14.1644 27.4581 15.6183 26.4375 16.2551 24.9812C17.921 25.1967 19.2125 26.6235 19.2125 28.3472V28.401H8.38106C6.98397 28.401 5.8473 29.5376 5.8473 30.9347V31.6884C5.8473 32.1201 6.19722 32.47 6.62884 32.47C7.06046 32.47 7.41038 32.1201 7.41038 31.6884V30.9347C7.41038 30.3995 7.84586 29.964 8.38106 29.964H19.991C19.9921 29.964 19.993 29.9642 19.9941 29.9642C19.9951 29.9642 19.996 29.964 19.9971 29.964H23.2538C23.789 29.964 24.2245 30.3995 24.2245 30.9347V39.125ZM31.6349 13.3115V8.2457H31.6886C32.6395 8.2457 33.413 9.01932 33.413 9.9702V12.4761C33.413 15.2101 35.6373 17.4344 38.3713 17.4344H39.2065C39.6381 17.4344 39.988 17.0844 39.988 16.6528C39.988 16.2212 39.6381 15.8713 39.2065 15.8713H38.3713C36.4992 15.8713 34.9761 14.3482 34.9761 12.4761V9.9702C34.9761 8.15743 33.5014 6.68261 31.6886 6.68261H30.8533C30.363 6.68261 29.9643 6.28371 29.9643 5.79353C29.9643 3.92147 31.4873 2.3984 33.3594 2.3984H40.042C42.8352 2.3984 45.1077 4.67092 45.1077 7.46415V13.3115C45.1077 14.7229 43.9594 15.8712 42.548 15.8712C42.1164 15.8712 41.7665 16.2211 41.7665 16.6527C41.7665 17.0843 42.1164 17.4342 42.548 17.4342C42.5662 17.4342 42.584 17.4331 42.602 17.4329L42.6029 20.6327C42.6031 21.0186 42.693 21.3878 42.8559 21.7185H36.647V19.775C36.647 19.4185 36.4057 19.1073 36.0606 19.0183C33.4547 18.3463 31.6349 15.9995 31.6349 13.3115ZM49.2843 31.7437C49.2663 31.7435 49.2486 31.7423 49.2305 31.7423H37.5358C36.5692 31.7423 35.6798 32.0776 34.9761 32.6368V31.9742C34.9761 30.4983 34.3259 29.11 33.1921 28.1651L30.3016 25.7563C30.3794 25.7063 30.4596 25.6589 30.5438 25.6168L35.2143 23.2815H44.8709L47.8693 24.7809C48.7421 25.2173 49.2843 26.0945 49.2843 27.0704V31.7437Z" fill="#0E59F2"/>
</svg>
