<svg width="45" height="45" viewBox="0 0 45 45" fill="none" xmlns="http://www.w3.org/2000/svg">
<path d="M42.75 0H2.25C1.65381 0.00178057 1.08255 0.239405 0.660977 0.660977C0.239405 1.08255 0.00178057 1.65381 0 2.25V33.75C0.00178057 34.3462 0.239405 34.9175 0.660977 35.339C1.08255 35.7606 1.65381 35.9982 2.25 36H27V41.25C27 42.2446 27.3951 43.1984 28.0984 43.9016C28.8016 44.6049 29.7554 45 30.75 45H41.25C42.2446 45 43.1984 44.6049 43.9016 43.9016C44.6049 43.1984 45 42.2446 45 41.25V2.25C44.9982 1.65381 44.7606 1.08255 44.339 0.660977C43.9175 0.239405 43.3462 0.00178057 42.75 0ZM43.5 41.25C43.4982 41.8462 43.2606 42.4175 42.839 42.839C42.4175 43.2606 41.8462 43.4982 41.25 43.5H30.75C30.1538 43.4982 29.5825 43.2606 29.161 42.839C28.7394 42.4175 28.5018 41.8462 28.5 41.25V40.5H43.5V41.25ZM43.5 39H28.5V22.5H43.5V39ZM43.5 21H28.5V20.25C28.5018 19.6538 28.7394 19.0825 29.161 18.661C29.5825 18.2394 30.1538 18.0018 30.75 18H41.25C41.8462 18.0018 42.4175 18.2394 42.839 18.661C43.2606 19.0825 43.4982 19.6538 43.5 20.25V21ZM43.5 17.2725C42.8557 16.7739 42.0647 16.5023 41.25 16.5H30.75C29.7554 16.5 28.8016 16.8951 28.0984 17.5984C27.3951 18.3016 27 19.2554 27 20.25V34.5H2.25C2.05109 34.5 1.86032 34.421 1.71967 34.2803C1.57902 34.1397 1.5 33.9489 1.5 33.75V7.5H43.5V17.2725ZM43.5 6H1.5V2.25C1.5 2.05109 1.57902 1.86032 1.71967 1.71967C1.86032 1.57902 2.05109 1.5 2.25 1.5H42.75C42.9489 1.5 43.1397 1.57902 43.2803 1.71967C43.421 1.86032 43.5 2.05109 43.5 2.25V6Z" fill="#0E59F2"/>
<path d="M4.5 3H3.75C3.55109 3 3.36032 3.07902 3.21967 3.21967C3.07902 3.36032 3 3.55109 3 3.75C3 3.94891 3.07902 4.13968 3.21967 4.28033C3.36032 4.42098 3.55109 4.5 3.75 4.5H4.5C4.69891 4.5 4.88968 4.42098 5.03033 4.28033C5.17098 4.13968 5.25 3.94891 5.25 3.75C5.25 3.55109 5.17098 3.36032 5.03033 3.21967C4.88968 3.07902 4.69891 3 4.5 3Z" fill="#0E59F2"/>
<path d="M7.5 3H6.75C6.55109 3 6.36032 3.07902 6.21967 3.21967C6.07902 3.36032 6 3.55109 6 3.75C6 3.94891 6.07902 4.13968 6.21967 4.28033C6.36032 4.42098 6.55109 4.5 6.75 4.5H7.5C7.69891 4.5 7.88968 4.42098 8.03033 4.28033C8.17098 4.13968 8.25 3.94891 8.25 3.75C8.25 3.55109 8.17098 3.36032 8.03033 3.21967C7.88968 3.07902 7.69891 3 7.5 3Z" fill="#0E59F2"/>
<path d="M10.5 3H9.75C9.55109 3 9.36032 3.07902 9.21967 3.21967C9.07902 3.36032 9 3.55109 9 3.75C9 3.94891 9.07902 4.13968 9.21967 4.28033C9.36032 4.42098 9.55109 4.5 9.75 4.5H10.5C10.6989 4.5 10.8897 4.42098 11.0303 4.28033C11.171 4.13968 11.25 3.94891 11.25 3.75C11.25 3.55109 11.171 3.36032 11.0303 3.21967C10.8897 3.07902 10.6989 3 10.5 3Z" fill="#0E59F2"/>
<path d="M24.75 12H3.75C3.55109 12 3.36032 12.079 3.21967 12.2197C3.07902 12.3603 3 12.5511 3 12.75V29.25C3 29.4489 3.07902 29.6397 3.21967 29.7803C3.36032 29.921 3.55109 30 3.75 30H24.75C24.9489 30 25.1397 29.921 25.2803 29.7803C25.421 29.6397 25.5 29.4489 25.5 29.25V12.75C25.5 12.5511 25.421 12.3603 25.2803 12.2197C25.1397 12.079 24.9489 12 24.75 12ZM5.1 28.5L11.25 18.6675L17.4 28.5H5.1ZM19.1625 28.5L17.5275 25.875L19.5 23.055L23.31 28.5H19.1625ZM24 26.8725L20.115 21.3225C20.0459 21.2235 19.9539 21.1426 19.8468 21.0868C19.7397 21.0309 19.6208 21.0018 19.5 21.0018C19.3792 21.0018 19.2603 21.0309 19.1532 21.0868C19.0461 21.1426 18.9541 21.2235 18.885 21.3225L16.665 24.495L11.8875 16.8525C11.8147 16.7515 11.7189 16.6693 11.6081 16.6126C11.4972 16.5558 11.3745 16.5263 11.25 16.5263C11.1255 16.5263 11.0028 16.5558 10.8919 16.6126C10.7811 16.6693 10.6853 16.7515 10.6125 16.8525L4.5 26.6325V13.5H24V26.8725Z" fill="#0E59F2"/>
<path d="M17.25 19.5C17.695 19.5 18.13 19.368 18.5 19.1208C18.87 18.8736 19.1584 18.5222 19.3287 18.111C19.499 17.6999 19.5436 17.2475 19.4568 16.811C19.37 16.3746 19.1557 15.9737 18.841 15.659C18.5263 15.3443 18.1254 15.13 17.689 15.0432C17.2525 14.9564 16.8001 15.001 16.389 15.1713C15.9778 15.3416 15.6264 15.63 15.3792 16C15.132 16.37 15 16.805 15 17.25C15 17.8467 15.2371 18.419 15.659 18.841C16.081 19.2629 16.6533 19.5 17.25 19.5ZM17.25 16.5C17.3983 16.5 17.5433 16.544 17.6667 16.6264C17.79 16.7088 17.8861 16.8259 17.9429 16.963C17.9997 17.1 18.0145 17.2508 17.9856 17.3963C17.9566 17.5418 17.8852 17.6754 17.7803 17.7803C17.6754 17.8852 17.5418 17.9566 17.3963 17.9856C17.2508 18.0145 17.1 17.9997 16.963 17.9429C16.8259 17.8861 16.7088 17.79 16.6264 17.6667C16.544 17.5433 16.5 17.3983 16.5 17.25C16.5 17.0511 16.579 16.8603 16.7197 16.7197C16.8603 16.579 17.0511 16.5 17.25 16.5Z" fill="#0E59F2"/>
<path d="M41.25 3H15C14.8011 3 14.6103 3.07902 14.4697 3.21967C14.329 3.36032 14.25 3.55109 14.25 3.75C14.25 3.94891 14.329 4.13968 14.4697 4.28033C14.6103 4.42098 14.8011 4.5 15 4.5H41.25C41.4489 4.5 41.6397 4.42098 41.7803 4.28033C41.921 4.13968 42 3.94891 42 3.75C42 3.55109 41.921 3.36032 41.7803 3.21967C41.6397 3.07902 41.4489 3 41.25 3Z" fill="#0E59F2"/>
<path d="M36.75 41.25H35.25C35.0511 41.25 34.8603 41.329 34.7197 41.4697C34.579 41.6103 34.5 41.8011 34.5 42C34.5 42.1989 34.579 42.3897 34.7197 42.5303C34.8603 42.671 35.0511 42.75 35.25 42.75H36.75C36.9489 42.75 37.1397 42.671 37.2803 42.5303C37.421 42.3897 37.5 42.1989 37.5 42C37.5 41.8011 37.421 41.6103 37.2803 41.4697C37.1397 41.329 36.9489 41.25 36.75 41.25Z" fill="#0E59F2"/>
<path d="M36.75 18.75H35.25C35.0511 18.75 34.8603 18.829 34.7197 18.9697C34.579 19.1103 34.5 19.3011 34.5 19.5C34.5 19.6989 34.579 19.8897 34.7197 20.0303C34.8603 20.171 35.0511 20.25 35.25 20.25H36.75C36.9489 20.25 37.1397 20.171 37.2803 20.0303C37.421 19.8897 37.5 19.6989 37.5 19.5C37.5 19.3011 37.421 19.1103 37.2803 18.9697C37.1397 18.829 36.9489 18.75 36.75 18.75Z" fill="#0E59F2"/>
<path d="M33.5303 27.2197C33.3896 27.0791 33.1989 27.0002 33 27.0002C32.8011 27.0002 32.6104 27.0791 32.4697 27.2197L29.4697 30.2197C29.3291 30.3604 29.2502 30.5511 29.2502 30.75C29.2502 30.9489 29.3291 31.1396 29.4697 31.2803L32.4697 34.2803C32.6112 34.4169 32.8007 34.4925 32.9973 34.4908C33.194 34.489 33.3821 34.4102 33.5211 34.2711C33.6602 34.1321 33.739 33.944 33.7408 33.7473C33.7425 33.5507 33.6669 33.3612 33.5303 33.2197L31.0605 30.75L33.5303 28.2803C33.6709 28.1396 33.7498 27.9489 33.7498 27.75C33.7498 27.5511 33.6709 27.3604 33.5303 27.2197Z" fill="#0E59F2"/>
<path d="M42.5303 30.2197L39.5303 27.2197C39.3888 27.0831 39.1993 27.0075 39.0027 27.0092C38.806 27.011 38.6179 27.0898 38.4789 27.2289C38.3398 27.3679 38.261 27.5561 38.2592 27.7527C38.2575 27.9493 38.3331 28.1388 38.4697 28.2803L40.9395 30.75L38.4697 33.2197C38.3981 33.2889 38.341 33.3717 38.3017 33.4632C38.2624 33.5547 38.2417 33.6531 38.2408 33.7527C38.2399 33.8523 38.2589 33.951 38.2966 34.0432C38.3343 34.1354 38.39 34.2191 38.4605 34.2895C38.5309 34.36 38.6146 34.4157 38.7068 34.4534C38.799 34.4911 38.8977 34.5101 38.9973 34.5092C39.0969 34.5083 39.1953 34.4876 39.2868 34.4483C39.3783 34.409 39.4611 34.3519 39.5303 34.2803L42.5303 31.2803C42.6709 31.1396 42.7498 30.9489 42.7498 30.75C42.7498 30.5511 42.6709 30.3604 42.5303 30.2197Z" fill="#0E59F2"/>
<path d="M37.7055 24.7793C37.5143 24.7246 37.3093 24.7482 37.1355 24.8446C36.9617 24.9411 36.8333 25.1026 36.7785 25.2937L33.7785 35.7937C33.7515 35.8885 33.7434 35.9876 33.7547 36.0855C33.766 36.1834 33.7965 36.2781 33.8444 36.3642C33.8924 36.4502 33.9568 36.526 34.034 36.5872C34.1112 36.6484 34.1997 36.6938 34.2945 36.7207C34.3612 36.7404 34.4304 36.7502 34.5 36.75C34.6629 36.7499 34.8213 36.6968 34.9514 36.5987C35.0814 36.5006 35.176 36.3629 35.2207 36.2063L38.2207 25.7063C38.2753 25.515 38.2517 25.3099 38.1551 25.1361C38.0585 24.9622 37.8967 24.8339 37.7055 24.7793Z" fill="#0E59F2"/>
</svg>
