<svg width="42" height="46" viewBox="0 0 42 46" fill="none" xmlns="http://www.w3.org/2000/svg">
<path d="M25.6667 8.43334C25.6667 7.52354 25.393 6.63418 24.8802 5.87771C24.3674 5.12125 23.6386 4.53165 22.7859 4.18349C21.9331 3.83533 20.9948 3.74423 20.0896 3.92172C19.1843 4.09921 18.3528 4.53732 17.7002 5.18064C17.0475 5.82397 16.6031 6.64361 16.423 7.53592C16.2429 8.42823 16.3354 9.35314 16.6886 10.1937C17.0418 11.0342 17.6399 11.7526 18.4073 12.2581C19.1748 12.7636 20.077 13.0333 21 13.0333C22.2373 13.032 23.4234 12.5469 24.2983 11.6845C25.1732 10.8221 25.6653 9.65291 25.6667 8.43334ZM17.8889 8.43334C17.8889 7.82681 18.0714 7.2339 18.4132 6.72959C18.7551 6.22528 19.2409 5.83221 19.8094 5.6001C20.3779 5.368 21.0035 5.30727 21.6069 5.42559C22.2104 5.54392 22.7648 5.83599 23.1999 6.26487C23.635 6.69376 23.9313 7.24018 24.0513 7.83506C24.1714 8.42993 24.1098 9.04654 23.8743 9.6069C23.6388 10.1673 23.2401 10.6462 22.7284 10.9832C22.2168 11.3201 21.6153 11.5 21 11.5C20.1752 11.4991 19.3844 11.1757 18.8011 10.6008C18.2179 10.0259 17.8898 9.24639 17.8889 8.43334Z" fill="#0E59F2"/>
<path d="M20.5539 21.3281C20.6847 21.4183 20.8404 21.4667 21 21.4667C21.1596 21.4667 21.3153 21.4183 21.4461 21.3281C22.9232 20.2555 24.2747 19.0243 25.4758 17.6572C28.1448 14.6317 29.5556 11.4425 29.5556 8.43334C29.5556 6.19668 28.6542 4.05162 27.0497 2.47007C25.4452 0.88851 23.2691 0 21 0C18.7309 0 16.5548 0.88851 14.9503 2.47007C13.3458 4.05162 12.4444 6.19668 12.4444 8.43334C12.4444 11.4425 13.8552 14.6317 16.5242 17.6572C17.7253 19.0243 19.0768 20.2555 20.5539 21.3281ZM21 1.53333C22.8559 1.53539 24.6351 2.26301 25.9474 3.55657C27.2597 4.85012 27.9979 6.60397 28 8.43334C28 13.9189 22.6058 18.4983 21 19.74C19.3918 18.4999 14 13.9295 14 8.43334C14.0021 6.60397 14.7403 4.85012 16.0526 3.55657C17.3649 2.26301 19.1441 1.53539 21 1.53333Z" fill="#0E59F2"/>
<path d="M10.6679 39.8267L11.1252 38.3608L12.6811 38.8325L12.2238 40.2983L10.6679 39.8267Z" fill="#0E59F2"/>
<path d="M13.7786 40.767L14.236 39.301L15.7919 39.7727L15.3345 41.2386L13.7786 40.767Z" fill="#0E59F2"/>
<path d="M16.8903 41.7131L17.3476 40.2472L18.9035 40.7188L18.4462 42.1847L16.8903 41.7131Z" fill="#0E59F2"/>
<path d="M41.451 17.6673L29.7843 14.1288L29.3268 15.5944L38.5778 18.4L21 23.7312L3.42222 18.4L12.6729 15.5944L12.2154 14.1288L0.548722 17.6673C0.389809 17.7155 0.250775 17.8127 0.152018 17.9446C0.0532622 18.0765 -1.63787e-05 18.2361 3.77694e-09 18.4V39.1C2.82487e-06 39.264 0.0533235 39.4236 0.152136 39.5555C0.250948 39.6873 0.390046 39.7845 0.549014 39.8328L20.7712 45.9661C20.9203 46.0113 21.0797 46.0113 21.2288 45.9661L41.451 39.8328C41.61 39.7845 41.7491 39.6873 41.8479 39.5555C41.9467 39.4236 42 39.264 42 39.1V18.4C42 18.2361 41.9467 18.0764 41.8479 17.9445C41.7491 17.8127 41.61 17.7155 41.451 17.6673ZM1.55556 19.4381L20.2222 25.0996V44.1953L1.55556 38.5338V19.4381ZM21.7778 44.1953V25.0996L40.4444 19.4381V38.5338L21.7778 44.1953Z" fill="#0E59F2"/>
<path d="M30.8874 38.3777L32.4433 37.9061L32.9007 39.3719L31.3448 39.8436L30.8874 38.3777Z" fill="#0E59F2"/>
<path d="M33.9977 37.437L35.5536 36.9653L36.011 38.4313L34.4551 38.9029L33.9977 37.437Z" fill="#0E59F2"/>
<path d="M37.1111 36.4905L38.667 36.0189L39.1243 37.4847L37.5684 37.9564L37.1111 36.4905Z" fill="#0E59F2"/>
<path d="M14.7778 30.9616C14.9841 30.9616 15.1819 30.8808 15.3278 30.737C15.4736 30.5932 15.5556 30.3982 15.5556 30.1949V26.3616C15.5556 26.1976 15.5022 26.038 15.4034 25.9061C15.3046 25.7742 15.1655 25.677 15.0065 25.6288L7.22876 23.2698C7.11243 23.2345 6.98931 23.2266 6.86932 23.2468C6.74933 23.2669 6.63581 23.3146 6.5379 23.3858C6.43999 23.4571 6.36042 23.5501 6.30559 23.6572C6.25077 23.7643 6.22221 23.8826 6.22222 24.0026V27.836C6.22223 27.9999 6.27555 28.1595 6.37436 28.2914C6.47317 28.4233 6.61227 28.5205 6.77124 28.5687L14.549 30.9277C14.6231 30.9502 14.7002 30.9616 14.7778 30.9616ZM14 29.1568L7.77778 27.2698V25.0407L14 26.9277V29.1568Z" fill="#0E59F2"/>
<path d="M35.7778 27.836V24.0026C35.7778 23.8826 35.7492 23.7643 35.6944 23.6572C35.6396 23.5501 35.56 23.4571 35.4621 23.3858C35.3642 23.3146 35.2507 23.2669 35.1307 23.2468C35.0107 23.2266 34.8876 23.2345 34.7712 23.2698L26.9935 25.6288C26.8345 25.677 26.6954 25.7742 26.5966 25.9061C26.4978 26.038 26.4444 26.1976 26.4444 26.3616V30.1949C26.4444 30.3149 26.473 30.4332 26.5278 30.5403C26.5826 30.6474 26.6622 30.7404 26.7601 30.8117C26.858 30.8829 26.9715 30.9306 27.0915 30.9507C27.2115 30.9709 27.3346 30.963 27.451 30.9277L35.2288 28.5687C35.3877 28.5205 35.5268 28.4233 35.6256 28.2914C35.7245 28.1595 35.7778 27.9999 35.7778 27.836ZM34.2222 27.2698L28 29.1568V26.9277L34.2222 25.0407V27.2698Z" fill="#0E59F2"/>
</svg>
