<svg width="15" height="16" viewBox="0 0 15 16" fill="none" xmlns="http://www.w3.org/2000/svg">
<mask id="mask0_2415_39" style="mask-type:luminance" maskUnits="userSpaceOnUse" x="0" y="0" width="15" height="16">
<path d="M0.769303 8.25617L1.89566 8.90538V11.6623L5.92333 13.9824L9.4105 11.9722V15.3296L8.17953 14.6212L5.92508 15.9214L5.62867 15.7508C4.71329 15.2252 1.54868 13.4029 0.359561 12.7136L0.214844 12.6301V7.93766L0.769303 8.25617ZM10.1428 14.3392V13.0408L12.535 11.6623L12.5333 7.01867L9.04609 5.01013L11.9596 3.33054V4.74905L14.2141 6.04921V6.39035C14.2141 7.4451 14.2158 11.0915 14.2141 12.4647V12.6318L10.1428 14.978V14.3392ZM7.35307 6.14494L8.31204 6.69842L9.4105 7.33022V8.59557V9.38402L10.488 10.0054C10.57 9.97231 10.6606 9.95491 10.7548 9.95491C11.1523 9.95491 11.4732 10.2769 11.4732 10.672C11.4732 11.0688 11.1506 11.3891 10.7548 11.3891C10.3573 11.3891 10.0364 11.0671 10.0364 10.672C10.0364 10.5798 10.0539 10.491 10.0853 10.4109L10.4009 10.5919L10.5386 10.3535L10.2335 10.1777L9.40875 9.70254L8.77583 9.33703L7.35307 8.51725V6.14494ZM9.27101 9.94273L8.31204 10.4962L7.21358 11.1298L6.11513 10.4962L5.15616 9.94273L7.21358 8.75744L9.27101 9.94273ZM5.01841 9.70254V8.59557V7.33022L6.11687 6.69842L6.80036 6.30332V5.0606C6.73061 5.00491 6.66959 4.93703 6.62251 4.85522C6.42374 4.51234 6.54231 4.07373 6.88579 3.87532C7.22928 3.6769 7.66866 3.79525 7.86743 4.13813C8.0662 4.48101 7.94763 4.91962 7.60415 5.11804C7.52394 5.16503 7.43851 5.19288 7.35133 5.2068V4.84478H7.0741V5.19636V6.14668V8.51725L5.01841 9.70254ZM3.94088 10.0071L5.01841 9.38576V9.70254L4.50231 10.0002L4.1937 10.1777L3.88857 10.3535L4.02632 10.5919L4.3419 10.4109C4.37329 10.4927 4.39072 10.5798 4.39072 10.672C4.39072 11.0688 4.06816 11.3891 3.67237 11.3891C3.27483 11.3891 2.95401 11.0671 2.95401 10.672C2.95401 10.2752 3.27657 9.95491 3.67237 9.95491C3.76827 9.95665 3.85719 9.97405 3.94088 10.0071ZM10.7321 3.19478L9.60578 3.84399L7.21358 2.46551L3.18591 4.78734V8.80617L0.274126 7.12658L1.50335 6.4182V3.81962L1.79976 3.64905C2.7134 3.12168 5.87626 1.29588 7.06887 0.611865L7.21358 0.52832L11.2866 2.87452L10.7321 3.19478Z" fill="white"/>
</mask>
<g mask="url(#mask0_2415_39)">
<path d="M13.6836 1.11621H0.75V15.334H13.6836V1.11621Z" fill="#0E59F2"/>
</g>
</svg>
