<svg width="55" height="55" viewBox="0 0 55 55" fill="none" xmlns="http://www.w3.org/2000/svg">
<path d="M52.5508 38.5859C52.0947 37.7977 51.3449 37.2223 50.4655 36.9855C49.5861 36.7487 48.6488 36.87 47.8586 37.3227L39.4797 42.1609C39.0221 41.4753 38.3325 40.9779 37.5375 40.7602L24.7156 37.3312C23.7289 37.065 22.6904 37.0561 21.6992 37.3055L17.1875 38.4313V36.9531C17.1875 36.7252 17.097 36.5066 16.9358 36.3455C16.7746 36.1843 16.556 36.0938 16.3281 36.0938H9.45312C9.2252 36.0938 9.00662 36.1843 8.84546 36.3455C8.68429 36.5066 8.59375 36.7252 8.59375 36.9531V37.8125H2.57812C2.3502 37.8125 2.13162 37.903 1.97046 38.0642C1.80929 38.2254 1.71875 38.444 1.71875 38.6719V50.7031C1.71875 50.931 1.80929 51.1496 1.97046 51.3108C2.13162 51.472 2.3502 51.5625 2.57812 51.5625H8.59375V52.4219C8.59375 52.6498 8.68429 52.8684 8.84546 53.0295C9.00662 53.1907 9.2252 53.2812 9.45312 53.2812H16.3281C16.556 53.2812 16.7746 53.1907 16.9358 53.0295C17.097 52.8684 17.1875 52.6498 17.1875 52.4219V51.2359L18.2961 51.7859C19.1319 52.202 20.0523 52.4196 20.9859 52.4219H33.8508C34.9073 52.4242 35.9454 52.1454 36.8586 51.6141L51.2961 43.2781C52.0825 42.8203 52.6559 42.0699 52.8909 41.1907C53.126 40.3116 53.0037 39.3752 52.5508 38.5859ZM8.59375 49.8438H3.4375V39.5312H8.59375V49.8438ZM15.4688 51.5625H10.3125V37.8125H15.4688V51.5625ZM50.4367 41.7914L35.9992 50.1273C35.3463 50.5052 34.6051 50.7038 33.8508 50.7031H20.9859C20.3174 50.7045 19.658 50.5485 19.0609 50.2477L17.1875 49.3109V40.2016L22.1117 38.9727C22.8203 38.7935 23.5631 38.7994 24.2687 38.9898L37.0906 42.4273C37.4205 42.513 37.7173 42.6952 37.9429 42.9506C38.1686 43.2061 38.3128 43.523 38.3571 43.861C38.4014 44.1989 38.3438 44.5423 38.1917 44.8473C38.0395 45.1523 37.7998 45.4048 37.5031 45.5727C37.3094 45.6869 37.0947 45.761 36.8718 45.7905C36.6488 45.8201 36.4222 45.8044 36.2055 45.7445L25.9531 42.9945C25.732 42.9353 25.4965 42.9663 25.2982 43.0807C25.1 43.1951 24.9554 43.3836 24.8961 43.6047C24.8368 43.8258 24.8678 44.0613 24.9823 44.2596C25.0967 44.4578 25.2852 44.6025 25.5063 44.6617L35.7586 47.4031C36.0501 47.4816 36.3505 47.522 36.6523 47.5234C37.2536 47.5243 37.8441 47.3641 38.3625 47.0594C38.7553 46.835 39.0996 46.5349 39.3755 46.1764C39.6513 45.8179 39.8533 45.4082 39.9695 44.9711C40.0649 44.5922 40.0968 44.2002 40.0641 43.8109L48.718 38.818C49.1128 38.5988 49.5774 38.5417 50.0136 38.6588C50.4498 38.7758 50.8234 39.0579 51.0555 39.4453C51.2837 39.8387 51.3467 40.3064 51.2308 40.7462C51.1148 41.1859 50.8293 41.5618 50.4367 41.7914Z" fill="#0E59F2"/>
<path d="M12.8906 50.7031C13.1185 50.7031 13.3371 50.6126 13.4983 50.4514C13.6595 50.2903 13.75 50.0717 13.75 49.8438V48.9844C13.75 48.7565 13.6595 48.5379 13.4983 48.3767C13.3371 48.2155 13.1185 48.125 12.8906 48.125C12.6627 48.125 12.4441 48.2155 12.283 48.3767C12.1218 48.5379 12.0312 48.7565 12.0312 48.9844V49.8438C12.0312 50.0717 12.1218 50.2903 12.283 50.4514C12.4441 50.6126 12.6627 50.7031 12.8906 50.7031Z" fill="#0E59F2"/>
<path d="M39.5312 14.6094H36.3086L36.1539 14.2484L38.4398 11.9711C38.6008 11.8088 38.6912 11.5895 38.6912 11.3609C38.6912 11.1324 38.6008 10.913 38.4398 10.7508L34.7961 7.10703C34.6338 6.94603 34.4145 6.85568 34.1859 6.85568C33.9574 6.85568 33.738 6.94603 33.5758 7.10703L31.2984 9.39297L30.9375 9.23828V6.01562C30.9375 5.7877 30.847 5.56912 30.6858 5.40796C30.5246 5.24679 30.306 5.15625 30.0781 5.15625H24.9219C24.694 5.15625 24.4754 5.24679 24.3142 5.40796C24.153 5.56912 24.0625 5.7877 24.0625 6.01562V9.23828L23.7016 9.39297L21.4242 7.10703C21.262 6.94603 21.0426 6.85568 20.8141 6.85568C20.5855 6.85568 20.3662 6.94603 20.2039 7.10703L16.5602 10.7508C16.3992 10.913 16.3088 11.1324 16.3088 11.3609C16.3088 11.5895 16.3992 11.8088 16.5602 11.9711L18.8461 14.2484L18.6914 14.6094H15.4688C15.2408 14.6094 15.0222 14.6999 14.8611 14.8611C14.6999 15.0222 14.6094 15.2408 14.6094 15.4688V20.625C14.6094 20.8529 14.6999 21.0715 14.8611 21.2327C15.0222 21.3938 15.2408 21.4844 15.4688 21.4844H18.6914L18.8461 21.8453L16.5602 24.1227C16.4019 24.2865 16.3126 24.505 16.3109 24.7328C16.3143 24.9603 16.4033 25.1782 16.5602 25.343L20.2039 28.9867C20.3678 29.145 20.5862 29.2342 20.8141 29.2359C21.0416 29.2326 21.2594 29.1436 21.4242 28.9867L23.7016 26.7008L24.0625 26.8555V30.0781C24.0625 30.306 24.153 30.5246 24.3142 30.6858C24.4754 30.847 24.694 30.9375 24.9219 30.9375H30.0781C30.306 30.9375 30.5246 30.847 30.6858 30.6858C30.847 30.5246 30.9375 30.306 30.9375 30.0781V26.8555L31.2984 26.7008L33.5758 28.9867C33.742 29.1401 33.9598 29.2252 34.1859 29.2252C34.4121 29.2252 34.6299 29.1401 34.7961 28.9867L38.4398 25.343C38.5967 25.1782 38.6857 24.9603 38.6891 24.7328C38.6874 24.505 38.5981 24.2865 38.4398 24.1227L36.1539 21.8453L36.3086 21.4844H39.5312C39.7592 21.4844 39.9778 21.3938 40.1389 21.2327C40.3001 21.0715 40.3906 20.8529 40.3906 20.625V15.4688C40.3906 15.2408 40.3001 15.0222 40.1389 14.8611C39.9778 14.6999 39.7592 14.6094 39.5312 14.6094ZM38.6719 19.7656H35.6984C35.5172 19.7658 35.3407 19.8232 35.194 19.9297C35.0474 20.0362 34.9382 20.1863 34.882 20.3586C34.7492 20.7904 34.5735 21.2078 34.3578 21.6047C34.2702 21.7685 34.2371 21.956 34.2634 22.1399C34.2897 22.3239 34.3739 22.4946 34.5039 22.6273L36.618 24.7328L34.1859 27.1648L32.0805 25.0508C31.9477 24.9208 31.777 24.8365 31.5931 24.8103C31.4091 24.784 31.2216 24.8171 31.0578 24.9047C30.6609 25.1204 30.2435 25.296 29.8117 25.4289C29.6394 25.4851 29.4893 25.5943 29.3828 25.7409C29.2763 25.8875 29.2189 26.0641 29.2188 26.2453V29.2188H25.7812V26.2453C25.7811 26.0641 25.7237 25.8875 25.6172 25.7409C25.5107 25.5943 25.3606 25.4851 25.1883 25.4289C24.7565 25.296 24.3391 25.1204 23.9422 24.9047C23.7784 24.8171 23.5909 24.784 23.4069 24.8103C23.223 24.8365 23.0523 24.9208 22.9195 25.0508L20.8141 27.1648L18.382 24.7328L20.4961 22.6273C20.6261 22.4946 20.7103 22.3239 20.7366 22.1399C20.7629 21.956 20.7298 21.7685 20.6422 21.6047C20.4265 21.2078 20.2508 20.7904 20.118 20.3586C20.0618 20.1863 19.9526 20.0362 19.806 19.9297C19.6593 19.8232 19.4828 19.7658 19.3016 19.7656H16.3281V16.3281H19.3016C19.4828 16.328 19.6593 16.2706 19.806 16.1641C19.9526 16.0576 20.0618 15.9075 20.118 15.7352C20.2508 15.3034 20.4265 14.886 20.6422 14.4891C20.7298 14.3252 20.7629 14.1377 20.7366 13.9538C20.7103 13.7699 20.6261 13.5991 20.4961 13.4664L18.382 11.3609L20.8141 8.92891L22.9195 11.043C23.0523 11.173 23.223 11.2572 23.4069 11.2835C23.5909 11.3098 23.7784 11.2767 23.9422 11.1891C24.3391 10.9733 24.7565 10.7977 25.1883 10.6648C25.3606 10.6087 25.5107 10.4995 25.6172 10.3528C25.7237 10.2062 25.7811 10.0297 25.7812 9.84844V6.875H29.2188V9.84844C29.2189 10.0297 29.2763 10.2062 29.3828 10.3528C29.4893 10.4995 29.6394 10.6087 29.8117 10.6648C30.2435 10.7977 30.6609 10.9733 31.0578 11.1891C31.2216 11.2767 31.4091 11.3098 31.5931 11.2835C31.777 11.2572 31.9477 11.173 32.0805 11.043L34.1859 8.92891L36.618 11.3609L34.5039 13.4664C34.3739 13.5991 34.2897 13.7699 34.2634 13.9538C34.2371 14.1377 34.2702 14.3252 34.3578 14.4891C34.5735 14.886 34.7492 15.3034 34.882 15.7352C34.9382 15.9075 35.0474 16.0576 35.194 16.1641C35.3407 16.2706 35.5172 16.328 35.6984 16.3281H38.6719V19.7656Z" fill="#0E59F2"/>
<path d="M32.6562 18.0469C32.6562 17.0271 32.3538 16.0302 31.7873 15.1822C31.2207 14.3343 30.4154 13.6734 29.4732 13.2831C28.531 12.8929 27.4943 12.7907 26.4941 12.9897C25.4939 13.1887 24.5751 13.6797 23.854 14.4009C23.1329 15.122 22.6418 16.0407 22.4428 17.0409C22.2439 18.0412 22.346 19.0779 22.7362 20.0201C23.1265 20.9623 23.7874 21.7676 24.6353 22.3341C25.4833 22.9007 26.4802 23.2031 27.5 23.2031C28.8671 23.2018 30.1778 22.6581 31.1445 21.6914C32.1112 20.7247 32.6549 19.414 32.6562 18.0469ZM24.0625 18.0469C24.0625 17.367 24.2641 16.7024 24.6418 16.1371C25.0195 15.5718 25.5564 15.1312 26.1845 14.871C26.8126 14.6109 27.5038 14.5428 28.1706 14.6754C28.8374 14.8081 29.4499 15.1355 29.9307 15.6162C30.4114 16.0969 30.7388 16.7094 30.8714 17.3763C31.0041 18.0431 30.936 18.7342 30.6758 19.3624C30.4157 19.9905 29.9751 20.5273 29.4098 20.9051C28.8445 21.2828 28.1799 21.4844 27.5 21.4844C26.5883 21.4844 25.714 21.1222 25.0693 20.4776C24.4247 19.8329 24.0625 18.9586 24.0625 18.0469Z" fill="#0E59F2"/>
<path d="M47.2656 19.7656H45.5469C45.5469 14.9793 43.6455 10.389 40.2611 7.00456C36.8766 3.62011 32.2863 1.71875 27.5 1.71875C22.7137 1.71875 18.1234 3.62011 14.7389 7.00456C11.3545 10.389 9.45312 14.9793 9.45312 19.7656H7.73438C6.36685 19.7656 5.05534 20.3089 4.08836 21.2759C3.12137 22.2428 2.57813 23.5544 2.57812 24.9219C2.57813 26.2894 3.12137 27.6009 4.08836 28.5679C5.05534 29.5349 6.36685 30.0781 7.73438 30.0781H12.0312C12.2592 30.0781 12.4778 29.9876 12.6389 29.8264C12.8001 29.6653 12.8906 29.4467 12.8906 29.2188V20.625C12.8906 20.3971 12.8001 20.1785 12.6389 20.0173C12.4778 19.8562 12.2592 19.7656 12.0312 19.7656H11.1719C11.1719 15.4351 12.8922 11.282 15.9543 8.2199C19.0164 5.15778 23.1695 3.4375 27.5 3.4375C31.8305 3.4375 35.9836 5.15778 39.0457 8.2199C42.1078 11.282 43.8281 15.4351 43.8281 19.7656H42.9688C42.7408 19.7656 42.5222 19.8562 42.3611 20.0173C42.1999 20.1785 42.1094 20.3971 42.1094 20.625V29.2188C42.1094 29.4467 42.1999 29.6653 42.3611 29.8264C42.5222 29.9876 42.7408 30.0781 42.9688 30.0781H43.8281V32.6562C43.8281 32.8842 43.7376 33.1028 43.5764 33.2639C43.4153 33.4251 43.1967 33.5156 42.9688 33.5156H36.7984C36.6201 33.0148 36.2917 32.5812 35.8581 32.2736C35.4245 31.9661 34.9066 31.7996 34.375 31.7969H32.6562C31.9725 31.7969 31.3167 32.0685 30.8332 32.552C30.3497 33.0355 30.0781 33.6912 30.0781 34.375C30.0781 35.0588 30.3497 35.7145 30.8332 36.198C31.3167 36.6815 31.9725 36.9531 32.6562 36.9531H34.375C34.9066 36.9504 35.4245 36.7839 35.8581 36.4764C36.2917 36.1688 36.6201 35.7352 36.7984 35.2344H42.9688C43.6519 35.2323 44.3065 34.9601 44.7895 34.477C45.2726 33.994 45.5448 33.3394 45.5469 32.6562V30.0781H47.2656C48.6331 30.0781 49.9447 29.5349 50.9116 28.5679C51.8786 27.6009 52.4219 26.2894 52.4219 24.9219C52.4219 23.5544 51.8786 22.2428 50.9116 21.2759C49.9447 20.3089 48.6331 19.7656 47.2656 19.7656ZM7.73438 28.3594C6.82269 28.3594 5.94835 27.9972 5.3037 27.3526C4.65904 26.7079 4.29688 25.8336 4.29688 24.9219C4.29688 24.0102 4.65904 23.1359 5.3037 22.4912C5.94835 21.8465 6.82269 21.4844 7.73438 21.4844V28.3594ZM11.1719 28.3594H9.45312V21.4844H11.1719V28.3594ZM34.375 35.2344H32.6562C32.4283 35.2344 32.2097 35.1438 32.0486 34.9827C31.8874 34.8215 31.7969 34.6029 31.7969 34.375C31.7969 34.1471 31.8874 33.9285 32.0486 33.7673C32.2097 33.6062 32.4283 33.5156 32.6562 33.5156H34.375C34.6029 33.5156 34.8215 33.6062 34.9827 33.7673C35.1438 33.9285 35.2344 34.1471 35.2344 34.375C35.2344 34.6029 35.1438 34.8215 34.9827 34.9827C34.8215 35.1438 34.6029 35.2344 34.375 35.2344ZM45.5469 28.3594H43.8281V21.4844H45.5469V28.3594ZM47.2656 28.3594V21.4844C48.1773 21.4844 49.0516 21.8465 49.6963 22.4912C50.341 23.1359 50.7031 24.0102 50.7031 24.9219C50.7031 25.8336 50.341 26.7079 49.6963 27.3526C49.0516 27.9972 48.1773 28.3594 47.2656 28.3594Z" fill="#0E59F2"/>
</svg>
