<svg width="55" height="55" viewBox="0 0 55 55" fill="none" xmlns="http://www.w3.org/2000/svg">
<g clip-path="url(#clip0_1292_3778)">
<path d="M13.9542 5.3125C12.0759 5.3125 10.5479 6.84058 10.5479 8.71885C10.5479 10.5971 12.0759 12.1253 13.9542 12.1253C15.8325 12.1253 17.3607 10.5971 17.3607 8.71885C17.3607 6.84058 15.8325 5.3125 13.9542 5.3125ZM13.9542 10.514C12.9644 10.514 12.1592 9.70874 12.1592 8.71885C12.1592 7.72906 12.9644 6.92383 13.9542 6.92383C14.9441 6.92383 15.7493 7.72906 15.7493 8.71885C15.7492 9.70874 14.944 10.514 13.9542 10.514Z" fill="#0E59F2"/>
<path d="M17.3607 23.9766V20.8623C17.3607 20.4173 17.0001 20.0566 16.555 20.0566H8.34863C7.90358 20.0566 7.54297 20.4173 7.54297 20.8623V23.9766C7.54297 24.4216 7.90358 24.7822 8.34863 24.7822H16.5551C17.0001 24.7822 17.3607 24.4216 17.3607 23.9766ZM15.7494 23.1709H9.1543V21.668H15.7495V23.1709H15.7494Z" fill="#0E59F2"/>
<path d="M51.3223 6.68787H46.2082C45.3176 6.68787 44.5408 7.18352 44.1384 7.91323H22.6726V7.40244C22.6726 7.02142 22.4058 6.6926 22.0329 6.61407L20.0697 6.20071C20.0661 6.19212 20.0626 6.18353 20.0589 6.17493L21.155 4.49442C21.3631 4.17527 21.3192 3.75396 21.0498 3.48466L19.1881 1.62282C18.9187 1.35341 18.4975 1.30937 18.1782 1.51766L16.4976 2.61379C16.489 2.61024 16.4805 2.6067 16.4719 2.60305L16.0585 0.639697C15.9801 0.266836 15.6512 0 15.2702 0H12.6372C12.2561 0 11.9273 0.266836 11.8488 0.639697L11.4354 2.60305C11.4268 2.60659 11.4184 2.61014 11.4098 2.61379L9.72925 1.51766C9.4101 1.30947 8.98879 1.35362 8.71938 1.62282L6.85754 3.48455C6.58813 3.75407 6.5443 4.17538 6.75237 4.49442L7.84851 6.17504C7.84496 6.18363 7.84142 6.19212 7.83776 6.20071L5.87441 6.61407C5.50155 6.69249 5.23472 7.02142 5.23472 7.40244V7.91323H5.21334C3.07597 7.91323 1.33691 9.65218 1.33691 11.7897V36.8515C1.33691 38.9889 3.07586 40.7279 5.21334 40.7279H8.26563C8.65514 43.5352 11.1207 45.6665 13.9534 45.6665C14.7887 45.6665 15.582 45.4859 16.2987 45.164L14.4765 52.294C13.753 55.1248 18.2631 56.0865 18.9582 53.3683L22.1888 40.7281H24.8117V52.8312C24.8117 54.0107 25.8012 55.0001 26.9807 55.0001C28.1604 55.0001 29.1496 54.0107 29.1496 52.8312V40.7279H31.7728L35.0033 53.3679C35.6977 56.0856 40.2087 55.1256 39.4849 52.2938L36.5291 40.7279H48.7483C50.8857 40.7279 52.6247 38.989 52.6247 36.8515V19.4434C52.6247 18.9983 52.2641 18.6377 51.8191 18.6377C51.374 18.6377 51.0134 18.9983 51.0134 19.4434V36.8515C51.0134 38.1005 49.9973 39.1166 48.7483 39.1166L19.6407 39.1167C19.2477 36.3295 16.8477 34.1781 13.9535 34.1781C11.1207 34.1781 8.65525 36.309 8.26573 39.1166H5.21334C3.96435 39.1166 2.94824 38.1005 2.94824 36.8515V13.4513H6.62551C6.64108 13.6357 6.71886 13.8147 6.85754 13.9534L8.71938 15.8151C8.98868 16.0843 9.40978 16.1284 9.72914 15.9202L11.4096 14.8241C11.4182 14.8277 11.4268 14.8312 11.4354 14.8349L11.8488 16.7982C11.9272 17.1711 12.2561 17.4379 12.6372 17.4379H15.2702C15.6512 17.4379 15.98 17.1711 16.0585 16.7982L16.4719 14.8349C16.4805 14.8313 16.4891 14.8278 16.4977 14.8241L18.1782 15.9202C18.4976 16.1285 18.9189 16.0844 19.1881 15.8151L21.0498 13.9534C21.1885 13.8147 21.2661 13.6357 21.2817 13.4513H43.5576L36.047 20.9619L32.1892 17.1052C31.5887 16.5021 30.5911 16.5025 29.9898 17.104L27.4853 19.6084C27.1706 19.923 27.1706 20.4331 27.4852 20.7477C27.7999 21.0622 28.31 21.0624 28.6245 20.7478L31.0889 18.2836L34.9478 22.1416C35.5486 22.742 36.5458 22.7438 37.1462 22.1415L48.1106 11.177C48.341 10.9465 48.4098 10.6001 48.2851 10.299C48.1605 9.99786 47.8666 9.8016 47.5408 9.8016H46.208C45.2391 9.8016 45.24 8.2992 46.208 8.2992H51.322C51.7245 8.2992 52.0521 8.62619 52.0521 9.02806V14.1421C52.0521 14.5523 51.7104 14.8939 51.3002 14.8939C50.8858 14.8939 50.5485 14.5566 50.5485 14.1421V12.8105C50.5485 12.4847 50.3522 12.1908 50.0511 12.0662C49.75 11.9412 49.4036 12.0103 49.1732 12.2407L36.0475 25.3653L32.1882 21.5069C31.5829 20.9019 30.5973 20.9016 29.9897 21.507L23.3775 28.1203C22.7007 28.7982 21.629 27.744 22.3153 27.0571L25.9395 23.4331C26.2542 23.1184 26.2542 22.6083 25.9395 22.2937C25.6249 21.9793 25.1147 21.9791 24.8002 22.2937L21.176 25.9177C20.2373 26.8567 20.2758 28.423 21.2452 29.3231C22.1629 30.1752 23.6325 30.1458 24.5176 29.2591L31.089 22.6867L34.9479 26.5446C35.5462 27.1449 36.5472 27.147 37.1462 26.5457L49.0016 14.6912C49.2498 15.7304 50.1863 16.5055 51.3003 16.5055C52.5875 16.5055 53.6635 15.4298 53.6635 14.1423V9.02806C53.6636 7.7376 52.6132 6.68787 51.3223 6.68787ZM17.397 52.969C17.2184 53.668 15.8347 53.4871 16.0378 52.693L18.3615 43.601C19.0322 42.7988 19.4878 41.8116 19.6406 40.728H20.5257L17.397 52.969ZM27.5384 52.831C27.5384 53.5485 26.423 53.5497 26.423 52.831V40.7279H27.5384V52.831ZM37.9238 52.6929C38.1264 53.4851 36.7432 53.6673 36.5646 52.969L33.4361 40.7279H34.866L37.9238 52.6929ZM13.0207 35.8947C13.3253 35.8249 13.6392 35.7894 13.9535 35.7894C16.2324 35.7894 18.0862 37.6427 18.087 39.9209L18.0869 39.9223L18.087 39.9237C18.0862 42.2019 16.2322 44.0551 13.9535 44.0551C11.6923 44.0551 9.82067 42.1816 9.82067 39.9222C9.82067 37.985 11.1369 36.3288 13.0207 35.8947ZM2.94824 11.7897C2.94824 10.5407 3.96435 9.52456 5.21334 9.52456H5.23472V10.0355C5.23472 10.4165 5.50155 10.7453 5.87441 10.8238L7.83776 11.2372C7.84131 11.2458 7.84485 11.2543 7.84851 11.2629L7.4721 11.8399H2.94824V11.7897ZM18.5109 14.2133L17.0058 13.2316C16.4592 12.8754 15.1191 13.4376 14.9865 14.0684L14.6164 15.8264H13.2909L12.9209 14.0684C12.7866 13.4299 11.4413 12.8796 10.9015 13.2316L9.39646 14.2133L8.45909 13.2761L9.44082 11.771C9.79693 11.2245 9.23489 9.88432 8.60411 9.75165L6.84605 9.38158V8.05621L8.60411 7.68614C9.24274 7.55187 9.79263 6.20662 9.44082 5.66683L8.45909 4.16174L9.39646 3.22438L10.9015 4.2061C11.448 4.56231 12.7882 4.00018 12.9209 3.36939L13.291 1.61133H14.6165L14.9866 3.36939C15.1209 4.00791 16.4661 4.55802 17.0059 4.2061L18.511 3.22438L19.4482 4.16174L18.4665 5.66683C18.1102 6.21317 18.6727 7.55358 19.3033 7.68614L21.0613 8.05621V9.38169L19.3033 9.75176C18.6649 9.88593 18.1145 11.2314 18.4665 11.7711L19.4482 13.2762L18.5109 14.2133ZM45.6596 11.3492L45.169 11.8398H20.4352L20.0589 11.2629C20.0625 11.2543 20.066 11.2457 20.0697 11.2371L22.0329 10.8237C22.4058 10.7453 22.6726 10.4164 22.6726 10.0354V9.52445H43.8939C44.074 10.4132 44.777 11.1405 45.6596 11.3492Z" fill="#0E59F2"/>
<path d="M46.9138 33.7324H31.6445C31.1995 33.7324 30.8389 34.093 30.8389 34.5381C30.8389 34.9831 31.1995 35.3438 31.6445 35.3438H46.9138C47.3588 35.3438 47.7195 34.9831 47.7195 34.5381C47.7195 34.093 47.3587 33.7324 46.9138 33.7324Z" fill="#0E59F2"/>
<path d="M46.9139 30.1973H37.8613C37.4163 30.1973 37.0557 30.5579 37.0557 31.0029C37.0557 31.448 37.4163 31.8086 37.8613 31.8086H46.9139C47.3589 31.8086 47.7195 31.448 47.7195 31.0029C47.7195 30.5579 47.3588 30.1973 46.9139 30.1973Z" fill="#0E59F2"/>
<path d="M8.34863 26.2314C7.90358 26.2314 7.54297 26.5921 7.54297 27.0371C7.54297 27.4822 7.90358 27.8428 8.34863 27.8428H13.9543C14.3994 27.8428 14.76 27.4822 14.76 27.0371C14.76 26.5921 14.3994 26.2314 13.9543 26.2314H8.34863Z" fill="#0E59F2"/>
<path d="M13.9541 41.8145C14.3992 41.8145 14.7598 41.4539 14.7598 41.0089V38.8359C14.7598 38.3909 14.3992 38.0303 13.9541 38.0303C13.5091 38.0303 13.1484 38.3909 13.1484 38.8359V41.0089C13.1484 41.4538 13.5091 41.8145 13.9541 41.8145Z" fill="#0E59F2"/>
</g>
<defs>
<clipPath id="clip0_1292_3778">
<rect width="55" height="55" fill="white"/>
</clipPath>
</defs>
</svg>
