<svg width="38" height="49" viewBox="0 0 38 49" fill="none" xmlns="http://www.w3.org/2000/svg">
<path d="M27.6613 30.8226C27.6613 33.1283 26.7454 35.3395 25.115 36.9698C23.4847 38.6002 21.2734 39.5161 18.9677 39.5161C16.6621 39.5161 14.4508 38.6002 12.8205 36.9698C11.1901 35.3395 10.2742 33.1283 10.2742 30.8226C10.2742 30.7188 10.2538 30.616 10.2141 30.5201C10.1744 30.4242 10.1162 30.3371 10.0428 30.2637C9.96938 30.1903 9.88225 30.1321 9.78635 30.0924C9.69045 30.0527 9.58766 30.0322 9.48387 30.0323H1.58065C1.47685 30.0322 1.37407 30.0527 1.27817 30.0924C1.18227 30.1321 1.09514 30.1903 1.02174 30.2637C0.948349 30.3371 0.890135 30.4242 0.850427 30.5201C0.810719 30.616 0.790296 30.7188 0.790323 30.8226C0.792615 31.9971 0.907887 33.1687 1.13455 34.3212C1.16964 34.5011 1.26621 34.6633 1.40772 34.7798C1.54922 34.8964 1.72686 34.9602 1.9102 34.9602H3.03934C3.22971 34.9658 3.41315 35.0328 3.56228 35.1512C3.71141 35.2697 3.8182 35.4332 3.86672 35.6174C4.13963 36.4751 4.48563 37.3079 4.90092 38.1064C4.99719 38.2714 5.03741 38.4631 5.01557 38.6528C4.99372 38.8425 4.91098 39.02 4.77975 39.1588L3.97709 39.9619C3.84732 40.0914 3.76672 40.2621 3.74911 40.4447C3.73151 40.6272 3.778 40.8102 3.88061 40.9621C5.19381 42.9162 6.87399 44.5966 8.82784 45.9101C8.97989 46.0125 9.1628 46.0589 9.34527 46.0413C9.52774 46.0237 9.69843 45.9432 9.8281 45.8137L10.6315 45.0102C10.7704 44.8791 10.9481 44.7965 11.1379 44.7748C11.3276 44.7531 11.5193 44.7934 11.6842 44.8898C12.4826 45.3049 13.3151 45.6507 14.1725 45.9236C14.3568 45.9722 14.5203 46.0791 14.6389 46.2282C14.7574 46.3774 14.8244 46.561 14.8301 46.7514V47.8805C14.8301 48.0639 14.8938 48.2415 15.0104 48.383C15.127 48.5245 15.2892 48.6211 15.4691 48.6562C17.779 49.1146 20.1564 49.1146 22.4663 48.6562C22.6462 48.6211 22.8084 48.5245 22.925 48.383C23.0415 48.2415 23.1053 48.0639 23.1053 47.8805V46.7514C23.1109 46.5609 23.178 46.3774 23.2965 46.2282C23.415 46.079 23.5786 45.9722 23.7629 45.9236C24.6203 45.6507 25.4528 45.3048 26.2511 44.8898C26.416 44.7933 26.6078 44.7529 26.7976 44.7747C26.9875 44.7964 27.1651 44.8792 27.3039 45.0106L28.1073 45.8136C28.237 45.9432 28.4077 46.0236 28.5901 46.0412C28.7726 46.0588 28.9555 46.0125 29.1075 45.9101C31.0614 44.5966 32.7416 42.9162 34.0548 40.9621C34.1574 40.8101 34.2039 40.6272 34.1863 40.4446C34.1687 40.2621 34.0881 40.0914 33.9583 39.9618L33.1556 39.1584C33.0243 39.0197 32.9416 38.8421 32.9199 38.6523C32.8982 38.4625 32.9386 38.2708 33.0352 38.1061C33.45 37.3075 33.7958 36.4749 34.0687 35.6174C34.1172 35.4332 34.224 35.2697 34.3731 35.1512C34.5222 35.0328 34.7057 34.9658 34.896 34.9602H36.0253C36.2086 34.9602 36.3863 34.8964 36.5278 34.7798C36.6693 34.6633 36.7658 34.5011 36.8009 34.3212C37.0276 33.1687 37.1429 31.9971 37.1452 30.8226C37.1452 30.7188 37.1248 30.616 37.0851 30.5201C37.0453 30.4242 36.9871 30.3371 36.9137 30.2637C36.8403 30.1903 36.7532 30.1321 36.6573 30.0924C36.5614 30.0527 36.4586 30.0322 36.3548 30.0323H28.4516C28.3478 30.0322 28.245 30.0527 28.1491 30.0924C28.0532 30.1321 27.9661 30.1903 27.8927 30.2637C27.8193 30.3371 27.7611 30.4242 27.7214 30.5201C27.6817 30.616 27.6613 30.7188 27.6613 30.8226ZM35.5444 31.6129C35.5152 32.2046 35.4544 32.7943 35.3623 33.3796H34.8961C34.3704 33.3858 33.8604 33.5598 33.4405 33.8763C33.0207 34.1928 32.713 34.6352 32.5622 35.1389C32.3169 35.9101 32.006 36.6589 31.633 37.3771C31.3819 37.8402 31.2858 38.3716 31.3587 38.8933C31.4317 39.4151 31.6698 39.8997 32.0382 40.2763L32.3716 40.6101C31.3605 41.9953 30.1407 43.2152 28.7557 44.2265L28.4215 43.8927C28.045 43.5243 27.5604 43.2862 27.0387 43.2133C26.517 43.1404 25.9857 43.2365 25.5226 43.4875C24.8044 43.8606 24.0556 44.1716 23.2844 44.4171C22.7806 44.5678 22.3381 44.8756 22.0216 45.2955C21.705 45.7155 21.5309 46.2256 21.5247 46.7514V47.2172C19.8306 47.4858 18.1048 47.4858 16.4108 47.2172V46.7514C16.4045 46.2256 16.2305 45.7155 15.9139 45.2955C15.5973 44.8756 15.1549 44.5678 14.6511 44.4171C13.8799 44.1716 13.1311 43.8606 12.4129 43.4875C11.9498 43.2366 11.4185 43.1406 10.8969 43.2135C10.3753 43.2863 9.89067 43.5242 9.51397 43.8923L9.17978 44.2265C7.79475 43.2152 6.57494 41.9953 5.56387 40.6102L5.89728 40.2767C6.2656 39.9001 6.50371 39.4155 6.57676 38.8938C6.64981 38.3721 6.55397 37.8408 6.30326 37.3775C5.92971 36.6593 5.61856 35.9103 5.37324 35.1389C5.2225 34.6352 4.91476 34.1928 4.4949 33.8763C4.07505 33.5598 3.56505 33.3858 3.03931 33.3796H2.57315C2.48111 32.7943 2.42031 32.2046 2.39103 31.6129H8.72365C8.92281 34.1933 10.0885 36.6036 11.9877 38.3618C13.8869 40.1201 16.3796 41.0968 18.9677 41.0968C21.5559 41.0968 24.0486 40.1201 25.9478 38.3618C27.847 36.6036 29.0127 34.1933 29.2118 31.6129H35.5444Z" fill="#0E59F2"/>
<path d="M19.7581 0H18.1774V3.16129H19.7581V0Z" fill="#0E59F2"/>
<path d="M37.9355 17.3871H34.7742V18.9677H37.9355V17.3871Z" fill="#0E59F2"/>
<path d="M3.16129 17.3871H0V18.9677H3.16129V17.3871Z" fill="#0E59F2"/>
<path d="M6.11424 4.20635L4.99658 5.32382L7.23171 7.55934L8.34938 6.44187L6.11424 4.20635Z" fill="#0E59F2"/>
<path d="M31.8214 4.20641L29.5861 6.44173L30.7036 7.5593L32.939 5.32397L31.8214 4.20641Z" fill="#0E59F2"/>
<path d="M19.7581 37.9355V21.9834C20.2854 21.797 20.7299 21.4301 21.0129 20.9477C21.2959 20.4653 21.3993 19.8983 21.3047 19.347C21.2102 18.7958 20.9238 18.2957 20.4961 17.9352C20.0685 17.5746 19.5272 17.3769 18.9679 17.3769C18.4086 17.3768 17.8672 17.5746 17.4396 17.9351C17.0119 18.2956 16.7255 18.7956 16.6309 19.3469C16.5363 19.8982 16.6396 20.4651 16.9226 20.9476C17.2056 21.43 17.6501 21.7969 18.1774 21.9834V37.9355H19.7581ZM18.9677 18.9677C19.1241 18.9677 19.2769 19.0141 19.4068 19.1009C19.5368 19.1878 19.6381 19.3112 19.6979 19.4556C19.7577 19.6 19.7734 19.7589 19.7429 19.9123C19.7124 20.0656 19.6371 20.2064 19.5266 20.3169C19.4161 20.4274 19.2752 20.5027 19.1219 20.5332C18.9686 20.5637 18.8097 20.548 18.6653 20.4882C18.5209 20.4284 18.3975 20.3271 18.3106 20.1971C18.2238 20.0672 18.1774 19.9144 18.1774 19.7581C18.1776 19.5485 18.261 19.3476 18.4091 19.1995C18.5573 19.0513 18.7582 18.968 18.9677 18.9677Z" fill="#0E59F2"/>
<path d="M22.9194 27.1345L25.1321 24.184C25.2347 24.0471 25.2903 23.8807 25.2903 23.7097V17.2415C25.8177 17.055 26.2621 16.6882 26.5452 16.2058C26.8282 15.7233 26.9316 15.1564 26.837 14.6051C26.7424 14.0538 26.456 13.5537 26.0284 13.1932C25.6008 12.8327 25.0595 12.6349 24.5001 12.6349C23.9408 12.6349 23.3995 12.8326 22.9718 13.1931C22.5442 13.5536 22.2578 14.0537 22.1632 14.605C22.0686 15.1562 22.1719 15.7232 22.4549 16.2056C22.7379 16.6881 23.1823 17.055 23.7097 17.2414V23.4461L21.4969 26.3967C21.3943 26.5335 21.3388 26.6999 21.3387 26.871V36.3548H22.9194V27.1345ZM24.5 14.2258C24.6563 14.2258 24.8091 14.2722 24.9391 14.359C25.069 14.4458 25.1703 14.5693 25.2302 14.7137C25.29 14.8581 25.3056 15.017 25.2751 15.1703C25.2446 15.3236 25.1694 15.4644 25.0588 15.575C24.9483 15.6855 24.8075 15.7608 24.6542 15.7913C24.5009 15.8218 24.342 15.8061 24.1976 15.7463C24.0531 15.6865 23.9297 15.5852 23.8429 15.4552C23.756 15.3252 23.7097 15.1724 23.7097 15.0161C23.7099 14.8066 23.7932 14.6057 23.9414 14.4575C24.0896 14.3094 24.2905 14.226 24.5 14.2258Z" fill="#0E59F2"/>
<path d="M16.5968 36.3548V26.871C16.5967 26.6999 16.5412 26.5335 16.4386 26.3967L14.2258 23.4461V17.2415C14.7531 17.055 15.1976 16.6882 15.4806 16.2058C15.7637 15.7233 15.867 15.1564 15.7725 14.6051C15.6779 14.0538 15.3915 13.5537 14.9639 13.1932C14.5363 12.8327 13.9949 12.6349 13.4356 12.6349C12.8763 12.6349 12.335 12.8326 11.9073 13.1931C11.4797 13.5536 11.1932 14.0537 11.0987 14.605C11.0041 15.1562 11.1074 15.7232 11.3904 16.2056C11.6734 16.6881 12.1178 17.055 12.6452 17.2414V23.7097C12.6452 23.8807 12.7007 24.0471 12.8034 24.184L15.0161 27.1345V36.3548H16.5968ZM13.4355 14.2258C13.5918 14.2258 13.7446 14.2722 13.8746 14.359C14.0045 14.4458 14.1058 14.5693 14.1656 14.7137C14.2255 14.8581 14.2411 15.017 14.2106 15.1703C14.1801 15.3236 14.1049 15.4644 13.9943 15.575C13.8838 15.6855 13.743 15.7608 13.5897 15.7913C13.4364 15.8218 13.2775 15.8061 13.133 15.7463C12.9886 15.6865 12.8652 15.5852 12.7784 15.4552C12.6915 15.3252 12.6452 15.1724 12.6452 15.0161C12.6454 14.8066 12.7287 14.6057 12.8769 14.4575C13.025 14.3094 13.2259 14.226 13.4355 14.2258Z" fill="#0E59F2"/>
<path d="M6.32258 20.4027V22.9194C6.32264 23.1289 6.40593 23.3299 6.55414 23.4781L11.8548 28.7789V33.1936H13.4355V28.4516C13.4354 28.242 13.3521 28.041 13.2039 27.8929L7.90323 22.5921V20.4028C8.43057 20.2163 8.87503 19.8495 9.15806 19.3671C9.44109 18.8846 9.54446 18.3177 9.44989 17.7664C9.35533 17.2151 9.06892 16.715 8.6413 16.3545C8.21368 15.994 7.67237 15.7962 7.11304 15.7962C6.55372 15.7962 6.01239 15.9939 5.58475 16.3544C5.1571 16.7149 4.87067 17.215 4.77607 17.7663C4.68148 18.3175 4.78481 18.8845 5.06781 19.3669C5.35081 19.8494 5.79525 20.2163 6.32258 20.4027ZM7.1129 17.3871C7.26921 17.3871 7.42202 17.4334 7.55198 17.5203C7.68195 17.6071 7.78325 17.7306 7.84307 17.875C7.90288 18.0194 7.91853 18.1783 7.88804 18.3316C7.85754 18.4849 7.78227 18.6257 7.67175 18.7363C7.56122 18.8468 7.4204 18.9221 7.26709 18.9526C7.11378 18.9831 6.95487 18.9674 6.81046 18.9076C6.66605 18.8478 6.54261 18.7465 6.45577 18.6165C6.36893 18.4865 6.32258 18.3337 6.32258 18.1774C6.32279 17.9679 6.40612 17.767 6.55429 17.6188C6.70246 17.4706 6.90336 17.3873 7.1129 17.3871Z" fill="#0E59F2"/>
<path d="M30.8226 15.8065C30.2638 15.8051 29.7226 16.0015 29.2948 16.3611C28.8671 16.7206 28.5805 17.22 28.4858 17.7707C28.3911 18.3214 28.4945 18.8879 28.7775 19.3696C29.0606 19.8514 29.5051 20.2174 30.0323 20.4027V23.3461L24.7763 27.8515C24.6897 27.9257 24.6201 28.0177 24.5724 28.1213C24.5248 28.2249 24.5 28.3376 24.5 28.4516V33.9839H26.0806V28.8152L31.3366 24.3098C31.4232 24.2356 31.4928 24.1436 31.5405 24.04C31.5881 23.9364 31.6129 23.8237 31.6129 23.7097V20.4028C32.14 20.2174 32.5846 19.8514 32.8676 19.3697C33.1507 18.8879 33.254 18.3214 33.1593 17.7708C33.0647 17.2201 32.778 16.7207 32.3503 16.3611C31.9226 16.0016 31.3814 15.8051 30.8226 15.8065ZM30.8226 18.9677C30.6663 18.9677 30.5135 18.9214 30.3835 18.8345C30.2535 18.7477 30.1522 18.6243 30.0924 18.4799C30.0326 18.3354 30.0169 18.1765 30.0474 18.0232C30.0779 17.8699 30.1532 17.7291 30.2637 17.6186C30.3743 17.508 30.5151 17.4328 30.6684 17.4023C30.8217 17.3718 30.9806 17.3874 31.125 17.4473C31.2694 17.5071 31.3929 17.6084 31.4797 17.7383C31.5666 17.8683 31.6129 18.0211 31.6129 18.1774C31.6127 18.387 31.5294 18.5879 31.3812 18.736C31.233 18.8842 31.0321 18.9675 30.8226 18.9677Z" fill="#0E59F2"/>
<path d="M12.8451 5.00705L6.52248 12.12C6.39366 12.2646 6.32252 12.4515 6.32258 12.6452V15.0161H7.90323V12.9458L13.7905 6.32258H24.145L30.0323 12.9458V15.0161H31.6129V12.6452C31.613 12.4515 31.5418 12.2646 31.413 12.12L25.0904 5.00705C25.0163 4.92368 24.9254 4.85696 24.8236 4.81126C24.7218 4.76557 24.6116 4.74194 24.5 4.74194H13.4355C13.3239 4.74194 13.2136 4.76557 13.1119 4.81126C13.0101 4.85696 12.9192 4.92368 12.8451 5.00705Z" fill="#0E59F2"/>
</svg>
