<svg width="45" height="45" viewBox="0 0 45 45" fill="none" xmlns="http://www.w3.org/2000/svg">
<path d="M39.1936 31.9398V29.0323C39.1924 28.0701 38.8097 27.1477 38.1294 26.4674C37.449 25.7871 36.5266 25.4044 35.5645 25.4032H29.4547C30.1265 24.1639 30.6684 22.8585 31.0718 21.5078L33.8298 19.3006C34.2585 18.9584 34.5719 18.4929 34.7278 17.9669C34.8836 17.4409 34.8743 16.8798 34.7012 16.3592C34.5281 15.8387 34.1994 15.3838 33.7596 15.0559C33.3199 14.728 32.7901 14.5429 32.2418 14.5256L33.8589 10.0793C34.2715 8.94456 34.4045 7.72711 34.2467 6.53006C34.0888 5.33301 33.6448 4.19165 32.9521 3.20268C32.2595 2.2137 31.3387 1.40625 30.2677 0.848747C29.1967 0.291241 28.0071 0.000103041 26.7997 7.6474e-07H20.6376C16.0267 -0.0011492 11.5086 1.29465 7.59919 3.73936C7.48173 3.81212 7.38748 3.91689 7.32752 4.04137C7.26755 4.16585 7.24436 4.30486 7.26067 4.44206C7.27698 4.57926 7.33212 4.70896 7.4196 4.81591C7.50708 4.92286 7.62327 5.00262 7.75452 5.04581L9.50444 5.62645C9.74529 5.7068 9.96718 5.8355 10.1565 6.00468C10.3458 6.17385 10.4986 6.37992 10.6054 6.61024C10.7123 6.84057 10.7709 7.0903 10.7778 7.3441C10.7847 7.59791 10.7396 7.85044 10.6454 8.08621C10.4715 8.52086 10.3916 8.98741 10.411 9.45515C10.4304 9.9229 10.5486 10.3812 10.7579 10.8L12.629 14.5386C12.0937 14.5812 11.5836 14.7838 11.165 15.1201C10.7463 15.4563 10.4384 15.9106 10.2812 16.4241C10.1241 16.9376 10.125 17.4864 10.2837 17.9994C10.4425 18.5124 10.7519 18.9657 11.1716 19.3006L13.9297 21.5078C14.3326 22.8585 14.874 24.1639 15.5453 25.4032H9.43548C8.47336 25.4044 7.55097 25.7871 6.87064 26.4674C6.19032 27.1477 5.8076 28.0701 5.80645 29.0323V31.9398C4.08864 32.6575 2.62111 33.8665 1.58808 35.4153C0.555054 36.9641 0.00257402 38.7835 0 40.6452V44.2742C0 44.4667 0.0764686 44.6513 0.212584 44.7874C0.348699 44.9235 0.533311 45 0.725806 45H44.2742C44.4667 45 44.6513 44.9235 44.7874 44.7874C44.9235 44.6513 45 44.4667 45 44.2742V40.6452C44.9974 38.7835 44.4449 36.9641 43.4119 35.4153C42.3789 33.8665 40.9114 32.6575 39.1936 31.9398ZM23.9516 14.5161C23.7591 14.5161 23.5745 14.5926 23.4384 14.7287C23.3023 14.8648 23.2258 15.0494 23.2258 15.2419V15.9677H21.7742V15.2419C21.7742 15.0494 21.6977 14.8648 21.5616 14.7287C21.4255 14.5926 21.2409 14.5161 21.0484 14.5161H14.5161V13.4528L19.0466 10.4327C20.0215 9.78145 21.1679 9.43435 22.3403 9.43548C24.0177 9.43353 25.6448 8.86267 26.9557 7.81621L28.1417 6.86758L29.3865 8.73581C30.1031 9.80816 30.4851 11.0692 30.4839 12.359V14.5161H23.9516ZM27.5806 15.9677V18.1452C27.5806 18.3377 27.5042 18.5223 27.3681 18.6584C27.2319 18.7945 27.0473 18.871 26.8548 18.871H25.4032C25.2107 18.871 25.0261 18.7945 24.89 18.6584C24.7539 18.5223 24.6774 18.3377 24.6774 18.1452V15.9677H27.5806ZM20.3226 15.9677V18.1452C20.3226 18.3377 20.2461 18.5223 20.11 18.6584C19.9739 18.7945 19.7893 18.871 19.5968 18.871H18.1452C17.9527 18.871 17.7681 18.7945 17.6319 18.6584C17.4958 18.5223 17.4194 18.3377 17.4194 18.1452V15.9677H20.3226ZM33.3871 17.2016C33.3875 17.3868 33.346 17.5696 33.2658 17.7365C33.1857 17.9034 33.0688 18.0501 32.924 18.1655L31.6081 19.2179C31.8 18.1447 31.9055 17.0578 31.9239 15.9677H32.1532C32.3153 15.9677 32.4757 15.9997 32.6254 16.0617C32.7751 16.1237 32.9111 16.2146 33.0257 16.3291C33.1403 16.4437 33.2312 16.5797 33.2932 16.7294C33.3552 16.8791 33.3871 17.0396 33.3871 17.2016ZM11.9925 8.62548C12.1602 8.20613 12.2404 7.75694 12.2283 7.30546C12.2162 6.85399 12.1119 6.40975 11.922 6C11.732 5.59025 11.4604 5.22363 11.1236 4.92264C10.7869 4.62164 10.3923 4.39261 9.96387 4.2496L9.74177 4.17702C13.0946 2.38701 16.8369 1.45094 20.6376 1.45161H26.7997C27.7735 1.4518 28.7329 1.68664 29.5967 2.13625C30.4605 2.58587 31.2032 3.23702 31.762 4.03456C32.3208 4.8321 32.6792 5.75255 32.8068 6.71796C32.9344 7.68337 32.8275 8.66532 32.4951 9.58065L31.8644 11.3153C31.7067 10.1034 31.2721 8.94412 30.5942 7.92726L28.9103 5.40073C28.8545 5.31704 28.7818 5.24589 28.6969 5.19179C28.6121 5.13769 28.5169 5.10181 28.4175 5.08645C28.3181 5.07144 28.2167 5.07703 28.1195 5.10288C28.0224 5.12873 27.9316 5.17427 27.8528 5.23669L26.0492 6.68323C24.9954 7.52349 23.6881 7.98196 22.3403 7.98387C20.8811 7.98255 19.4544 8.41451 18.241 9.225L13.3875 12.4606C13.3425 12.4912 13.3011 12.5267 13.2641 12.5666L12.0564 10.1504C11.9387 9.91514 11.8721 9.65762 11.8611 9.39478C11.8501 9.13195 11.8949 8.86977 11.9925 8.62548ZM12.0767 18.1669C11.8764 18.0075 11.7306 17.7896 11.6596 17.5436C11.5887 17.2975 11.596 17.0355 11.6807 16.7938C11.7653 16.5522 11.923 16.3428 12.1319 16.1948C12.3409 16.0468 12.5907 15.9674 12.8468 15.9677H13.0747C13.0929 17.0583 13.1985 18.1457 13.3904 19.2194L12.0767 18.1669ZM14.5277 15.9677H15.9677V18.1452C15.9677 18.7227 16.1971 19.2765 16.6055 19.6848C17.0138 20.0932 17.5677 20.3226 18.1452 20.3226H19.5968C20.1743 20.3226 20.7281 20.0932 21.1364 19.6848C21.5448 19.2765 21.7742 18.7227 21.7742 18.1452V17.4194H23.2258V18.1452C23.2258 18.7227 23.4552 19.2765 23.8636 19.6848C24.2719 20.0932 24.8257 20.3226 25.4032 20.3226H26.8548C27.4323 20.3226 27.9862 20.0932 28.3945 19.6848C28.8029 19.2765 29.0323 18.7227 29.0323 18.1452V15.9677H30.4723C30.4159 19.2945 29.4871 22.5481 27.7788 25.4032H17.2212C15.5129 22.5481 14.5841 19.2945 14.5277 15.9677ZM9.43548 26.8548H35.5645C36.142 26.8548 36.6958 27.0842 37.1042 27.4926C37.5125 27.9009 37.7419 28.4548 37.7419 29.0323V43.5484H7.25806V29.0323C7.25806 28.4548 7.48747 27.9009 7.89582 27.4926C8.30416 27.0842 8.858 26.8548 9.43548 26.8548ZM1.45161 40.6452C1.45358 39.1745 1.86114 37.7329 2.62946 36.4788C3.39778 35.2248 4.49708 34.207 5.80645 33.5373V43.5484H1.45161V40.6452ZM43.5484 43.5484H39.1936V33.5373C40.5029 34.2071 41.6021 35.2249 42.3704 36.4789C43.1387 37.7329 43.5463 39.1745 43.5484 40.6452V43.5484Z" fill="#0E59F2"/>
<path d="M22.5 41.371C23.0742 41.371 23.6355 41.2007 24.1129 40.8817C24.5904 40.5627 24.9625 40.1093 25.1822 39.5788C25.402 39.0483 25.4595 38.4645 25.3474 37.9014C25.2354 37.3382 24.9589 36.8209 24.5529 36.4149C24.1469 36.0088 23.6296 35.7323 23.0664 35.6203C22.5032 35.5083 21.9195 35.5658 21.389 35.7855C20.8585 36.0052 20.4051 36.3774 20.0861 36.8548C19.767 37.3322 19.5968 37.8935 19.5968 38.4677C19.5968 39.2377 19.9027 39.9762 20.4471 40.5206C20.9916 41.0651 21.73 41.371 22.5 41.371ZM22.5 37.0161C22.7871 37.0161 23.0678 37.1013 23.3065 37.2608C23.5452 37.4203 23.7312 37.647 23.8411 37.9122C23.951 38.1775 23.9797 38.4694 23.9237 38.7509C23.8677 39.0325 23.7295 39.2912 23.5264 39.4942C23.3234 39.6972 23.0648 39.8355 22.7832 39.8915C22.5016 39.9475 22.2097 39.9187 21.9445 39.8089C21.6792 39.699 21.4525 39.5129 21.293 39.2742C21.1335 39.0355 21.0484 38.7548 21.0484 38.4677C21.0484 38.0828 21.2013 37.7135 21.4736 37.4413C21.7458 37.1691 22.115 37.0161 22.5 37.0161Z" fill="#0E59F2"/>
<path d="M17.632 34.626L18.6583 33.5998L16.2682 31.2097L18.6583 28.8196L17.632 27.7933L14.7288 30.6965C14.5927 30.8326 14.5163 31.0172 14.5163 31.2097C14.5163 31.4021 14.5927 31.5867 14.7288 31.7228L17.632 34.626Z" fill="#0E59F2"/>
<path d="M27.368 34.626L30.2712 31.7228C30.4073 31.5867 30.4837 31.4021 30.4837 31.2097C30.4837 31.0172 30.4073 30.8326 30.2712 30.6965L27.368 27.7933L26.3417 28.8196L28.7318 31.2097L26.3417 33.5998L27.368 34.626Z" fill="#0E59F2"/>
<path d="M24.0973 27.8709L19.7413 33.6766L20.9025 34.5477L25.2584 28.7421L24.0973 27.8709Z" fill="#0E59F2"/>
</svg>
